<?xml version="1.0" encoding="utf-8"?>
<!-- Generator: Adobe Illustrator 24.0.2, SVG Export Plug-In . SVG Version: 6.00 Build 0)  -->
<svg version="1.1" id="Layer_1" xmlns="http://www.w3.org/2000/svg" xmlns:xlink="http://www.w3.org/1999/xlink" x="0px" y="0px"
	 viewBox="0 0 261 282" style="enable-background:new 0 0 261 282;" xml:space="preserve">
<style type="text/css">
	.st0{fill:#FFFFFF;stroke:#000000;stroke-miterlimit:10;}
	.st1{fill:#2D2D2D;}
	.st2{fill:#FFFFFF;}
	.st3{fill:#1D1D1B;}
</style>
<rect class="st0" width="261" height="287"/>
<path class="st1" d="M255.7,206.3v6.5c-3.7,3.6-16.1,16.2-18.4,16.6c-7.9,1.9-11.6-7.8-5.9-12.9L6.9,216.4v-13.8
	c50.3,0,214.3,0.1,215.9,0.1h8.6c-4.7-4-3.3-13.5,4.1-13.2c2.8,0,3.1,0.3,11.5,8.5L255.7,206.3z"/>
<path class="st1" d="M51.9,27.6c0-3.3,0-3.4-7.7-12.5C36.7,6.2,36.4,6,33.9,6c-2.5,0-2.8,0.3-10.4,9.1c-7.7,9.1-7.7,9.1-7.7,12.5
	c-0.5,7.6,6.9,9.8,10.9,5.2c0.7-0.8,0.9-0.6,1,6.8c0,1.3,0,2.8,0,4.5l-0.3,207.4c4.8-1.6,8.7-1.8,12.6-1c0-4.2,0.3-208.7,0.3-211.7
	V36c0-1.5,1.3-2.5,2.5-1.8l0,0C47.2,37,52.3,33.6,51.9,27.6z"/>
<g>
	<path class="st2" d="M204.3,153.1c-0.1,2.3-1.6,10.2-2.1,12.7c-0.1,0.1-0.1,0.1-0.1,0.2c-0.1,0.2-0.1,0.4-0.1,0.6
		c-0.4,1.7-0.7,3.5-1.1,5.2c-0.1,0.3-0.1,0.5-0.2,0.8c-0.9,4.2-2.2,9.8-3.1,12.7c-10.2,35.5-31.5,66.5-53,77.1
		c-5.5,2.7-11,4.1-16.2,4.1c-15.5,0-28.4-11.9-36.4-33.5c-5.4-14.5-8.1-27.3-13.8-65.2l-0.4-2.8c-0.9-6.1-1.6-10.6-2.3-14.5
		c0-0.1-0.1-0.2-0.1-0.3c-4.7-23.3-7.2-31-11.2-40.3c-4.8-11.1-10-17.9-17.4-22.8c-3.7-2.5-7.2-4-11.2-4.7c-1.3-0.3-2.7-0.4-4.4-0.5
		c-0.5-0.1-1-0.1-1.5-0.1c-1.2-0.1-1.9-0.2-2.5-0.2c-0.5,0-0.8,0.1-1,0.2c-0.2,0.1-0.4,0.1-0.6,0.1h-1.1c-1.3,0-3.9,0-5.3-2.9
		c-0.1-0.3-0.2-0.6-0.3-0.9c0-0.3,0-0.5-0.1-0.7c-0.2-1.6-0.2-2.2,0.3-3.9c0-0.3,0.1-0.5,0.3-0.7c1.9-3.1,4.4-5.9,14.8-5.9h1.5
		c0.1,0,0.4,0,0.7-0.1c0.4-0.1,0.6-0.1,0.8-0.1h1.5c4.9,0,9,2.1,14.1,5c7.7,4.3,13.5,10,19.5,19.1c0.5,0.7,0.9,1.3,1.2,1.8v0
		c0.1,0.3,4.7,11.2,8.9,22.9c0.1,0.7,0.3,1.3,0.7,1.9c2.9,8.2,5.4,16.5,6.1,21.8c0,0.3,0.1,2,1.2,10.5c0,0.1,0,0.2,0,0.2
		c0.1,0.3,0.2,0.6,0.3,0.9c0,0,0,0,0,0.1c0.6,4.1,1.3,8.8,2,13.8C94.4,176.1,96,186,97,192c0.9,5,2.5,12.9,3.7,17.6
		c4.9,20.2,10.1,30.2,18.7,35.8c3.7,2.4,4.2,2.6,8.1,2.8c0.3,0.1,0.7,0.1,1,0.1c2.1,0,4.1-0.3,6.2-0.9c0.1,0,0.1,0,0.1,0
		c5.9-1.6,12-5.8,18.7-12.6c12.1-12.3,21.5-28.2,28-47.3c2.1-5.9,3.4-10.6,4.8-16.8c0.1-0.3,0.1-0.7,0.2-1c0.7-3.3,1.5-7.1,2.6-12.7
		c-0.1-0.2,0-0.5,0.1-0.7c1.6-7.5,2.7-10.4,5.9-12.1c0.9-0.5,1.7-0.9,2.7-0.9c1.1,0,2,0.5,3,1.2C203.3,146.3,204.4,149,204.3,153.1z
		"/>
	<path class="st3" d="M90.8,114.9c-0.1,3.3-2.1,5.1-4.1,5.1c-0.8,0-1.9-0.3-3.1-1.7c-0.2-0.3-0.4-0.6-0.6-0.9
		c-0.3-0.6-0.5-1.2-0.7-1.9c-0.1-0.7-0.2-1.3-0.1-2c0.2-1.8,0.9-3.3,2.1-4c0,0,0.1,0,0.1-0.1c1.2-0.9,1.7-1,2.1-1
		c0.5,0,1.2,0.3,2.4,1C90.4,110.5,91,111.2,90.8,114.9z"/>
	<path class="st3" d="M212,156.8l-0.1,1.1l-1,5.7l-1.6,9.1L209,174c-1.9,8.5-5.7,21.7-7.7,27.2c-7.5,20.5-19.4,39.8-33.5,54.3
		c-15.7,16.2-23.8,20.6-37.6,20.6h-1.4c-6.9-0.1-8.5-0.4-12.4-1.8c-15.7-5.7-27-20.4-34.6-45.1c-4-12.8-7.3-29.5-11.4-57.4l-0.1-0.7
		v-0.1l-1.1-7.3c0-0.1,0-0.1-0.1-0.3l-2.5-14.7c0-0.3-0.1-0.6-0.2-0.9v-0.1c0-0.1-0.1-1.3-0.1-1.3c0-0.1-0.1-0.3-0.1-0.5v-0.1
		c-0.1-0.6-0.2-1.6-0.6-3.5c-0.2-0.9-0.4-1.9-0.7-2.9C59,112.4,51.1,97,40.3,90.9c0,0,0,0,0-0.1c-0.4-0.2-0.9-0.5-1.3-0.7
		c0,0-0.1-0.1-0.2-0.1L38.5,90c-0.5-0.2-1-0.4-1.6-0.6c0,0,0,0-0.1-0.1c-0.1-0.1-0.3-0.1-0.4-0.1h-0.2c-1.1,0.1-4.1,0.2-7.2,0.2
		h-4.1c-4.8,0-6.9-0.3-9.6-2.7c-3.2-3-4.4-6-4.2-10.6c0.3-6.6,3.8-12,9-13.9c0.3-0.1,2.3-0.8,4.9-1.4c0.7-0.2,1.2-0.7,1.5-1.4
		c0.8-0.2,1.8-0.3,3.5-0.3c0.6,0,1.3,0,2.1,0l1.3,0c2.2,0.1,3.8,0.2,5.2,0.3c2.8,0.3,4.5,0.7,7.9,1.7c13.7,4.2,24.8,13.1,33.1,26.3
		c2.9,4.7,2.7,5.3,2.3,6.2c0,0,0,0.1-0.1,0.1c-0.6,1.6-2.1,1.9-3.2,1.9h-0.4c-0.7-0.1-1.2-0.1-1.7-0.3c-0.8-0.3-1.5-1-2.9-3v0
		c-0.4-0.5-0.8-1.1-1.2-1.8c-6-9.1-11.8-14.8-19.5-19.1c-5.1-2.9-9.2-5-14.1-5h-1.5c-0.1,0-0.4,0.1-0.8,0.1
		c-0.3,0.1-0.5,0.1-0.7,0.1h-1.5c-10.4,0-12.9,2.8-14.8,5.9c-0.1,0.2-0.2,0.4-0.3,0.7c-0.5,1.8-0.5,2.4-0.3,3.9c0,0.2,0,0.4,0.1,0.7
		c0,0.3,0.1,0.6,0.3,0.9c1.4,2.9,4,2.9,5.3,2.9h1.1c0.2,0,0.4-0.1,0.6-0.1c0.3-0.1,0.5-0.2,1-0.2s1.3,0.1,2.5,0.2
		c0.5,0.1,1,0.1,1.5,0.1c1.8,0.1,3.1,0.3,4.4,0.5c4.1,0.7,7.5,2.2,11.2,4.7c7.4,4.9,12.6,11.8,17.4,22.8c4.1,9.3,6.5,17,11.2,40.3
		c0,0.1,0.1,0.2,0.1,0.3c0.6,4,1.3,8.5,2.3,14.5l0.4,2.8C84,205.7,86.7,218.5,92,233c8,21.6,20.9,33.5,36.4,33.5
		c5.2,0,10.7-1.4,16.2-4.1c21.5-10.6,42.8-41.6,53-77.1c0.9-2.9,2.1-8.6,3.1-12.7c0.1-0.3,0.1-0.6,0.2-0.8c0.4-1.7,0.7-3.5,1.1-5.2
		c0.1-0.2,0.1-0.4,0.1-0.6c0-0.1,0-0.1,0.1-0.2c0.5-2.5,2-10.4,2.1-12.7c0.2-4.1-1-6.8-3.8-8.7c-1-0.7-1.9-1.2-3-1.2
		c-0.9,0-1.8,0.4-2.7,0.9c-3.1,1.6-4.3,4.6-5.9,12.1c-0.1,0.3-0.1,0.5-0.1,0.7c-1.1,5.6-1.9,9.4-2.6,12.7c-0.1,0.4-0.1,0.7-0.2,1
		c-1.4,6.2-2.8,10.9-4.8,16.8c-6.5,19.1-15.9,35-28,47.3c-6.7,6.8-12.8,10.9-18.7,12.6c0,0,0,0-0.1,0c-2.1,0.6-4.1,0.9-6.2,0.9
		c-0.4,0-0.7,0-1-0.1c-4-0.2-4.4-0.4-8.1-2.8c-8.6-5.6-13.8-15.7-18.7-35.8c-1.1-4.6-2.8-12.6-3.7-17.6c-1-6-2.6-15.9-4.3-27.2
		c-0.8-4.9-1.4-9.7-2-13.8c0-0.1,0-0.1,0-0.1c0-0.3-0.1-0.6-0.3-0.9c0,0,0-0.1,0-0.2c-1.1-8.5-1.2-10.2-1.2-10.5
		c0.1-1,0.6-2,1.4-2.6c0.6-0.5,1.2-0.8,1.9-0.8h0.1c2.5,0.1,3.2,0.2,4.3,8.8l0.2,1.9v0.1c0.2,1.8,0.5,3.6,0.6,4.4
		c0,0.4,0.1,0.7,0.2,1c0,0,0.1,0.1,0.1,0.1c0.1,0.1,0.1,0.2,0.1,0.3c0,0.1,5,27.2,5,27.2l0.1,0.1c1.8,9.9,4.2,22.7,5.2,27
		c3.9,16.1,9.3,27,14.7,30c1.7,1,3.8,1.5,6.2,1.5c2.1,0,4.1-0.4,5.8-1.2c0.5-0.3,1.1-0.6,1.8-0.9c0,0,0,0,0.1,0
		c10.3-5.7,22.3-20.3,30.6-37.2c2.8-5.9,9.6-23.2,10.1-27.4l1.3-6.2c0-0.1,0.1-0.1,0.1-0.1l0.9-4.4l0.8-3.9c0-0.1,0-0.1,0-0.1
		l0.1-0.5c0,0,0.2-0.8,0.2-0.8c0.4-1.9,0.7-3.5,1-4.9c0.9-4,1.8-6.7,2.1-7.6c2.6-5.9,7.2-9.1,13.2-9.1c0.3,0,0.7,0,1,0.1
		c5.1,0.3,8.1,2.1,11,6.3C212.1,145.1,212.7,148.4,212,156.8z"/>
</g>
</svg>
