<?xml version="1.0" encoding="utf-8"?>
<!-- Generator: Adobe Illustrator 24.0.2, SVG Export Plug-In . SVG Version: 6.00 Build 0)  -->
<svg version="1.1" id="Layer_1" xmlns="http://www.w3.org/2000/svg" xmlns:xlink="http://www.w3.org/1999/xlink" x="0px" y="0px"
	 viewBox="0 0 815 437" style="enable-background:new 0 0 815 437;" xml:space="preserve">
<style type="text/css">
	.st0{fill:#1D1D1B;}
	.st1{fill:#FFFFFF;}
	.st2{fill:#2D2D2D;}
	.st3{fill:none;}
</style>
<g>
	<g>
		<path class="st0" d="M209.25,279.96c8.3,0,15.1,2.5,20.4,7.5s7.9,11.4,7.9,19.4c0,10.3-3.2,19.3-9.5,26.9s-13.8,11.4-22.3,11.4
			c-4.5,0-8.2-1.1-11-3.4c-2.9-2.3-4.3-5.2-4.3-8.8c0-3.1,1.2-5.9,3.7-8.6c1.8,3.4,4.4,5.1,7.6,5.1c4.6,0,8.9-2.9,12.8-8.6
			s5.9-12,5.9-18.8c0-4.7-1.1-8.5-3.3-11.3c-2.2-2.8-5.2-4.2-8.8-4.2c-5.3,0-11,3.3-17.1,9.9s-11.1,15.1-15.2,25.5
			s-6.1,20.3-6.1,29.6c0,11.9,3.4,21.7,10.2,29.4c6.8,7.7,15.5,11.5,26,11.5c6.7,0,12.7-1.5,18-4.6s10.9-7.9,16.6-14.4v9.9
			c-13.6,14-30,21-49.3,21c-13.8,0-25.1-4.3-33.9-12.9s-13.2-19.6-13.2-33.1c0-13.4,3.2-26.2,9.6-38.3c6.4-12.1,14.7-21.8,25-29
			C189.15,283.56,199.25,279.96,209.25,279.96 M209.25,272.96c-11.4,0-22.9,4.1-34.4,12.2c-11.2,7.9-20.3,18.5-27.2,31.5
			c-6.9,13.1-10.4,27.1-10.4,41.6c0,15.4,5.2,28.2,15.3,38.1c10.1,9.9,23.2,14.9,38.8,14.9c21.1,0,39.4-7.8,54.3-23.1l2-2v-2.8v-9.9
			v-18.6l-12.3,14c-5.2,5.9-10.2,10.3-14.9,13c-4.3,2.5-9,3.7-14.5,3.7c-8.5,0-15.3-3-20.7-9.1c-5.7-6.4-8.4-14.5-8.4-24.7
			c0-8.5,1.9-17.6,5.6-27.1s8.4-17.4,13.8-23.4c4.6-5,8.7-7.7,11.9-7.7c1.8,0,2.6,0.6,3.3,1.5c1.2,1.5,1.8,3.9,1.8,7
			c0,5.4-1.5,10.2-4.7,14.8c-1.7,2.5-4.4,5.5-7,5.5c-0.2,0-0.7,0-1.4-1.4l-4.6-8.5l-6.6,7c-3.7,4-5.6,8.5-5.6,13.4
			c0,5.7,2.4,10.7,6.9,14.3c4.1,3.3,9.3,4.9,15.4,4.9c10.6,0,19.9-4.7,27.6-13.9c7.4-8.8,11.2-19.4,11.2-31.4
			c0-9.9-3.4-18.1-10.1-24.5C227.85,276.16,219.35,272.96,209.25,272.96L209.25,272.96z"/>
	</g>
	<g>
		<path class="st0" d="M287.05,329.26c4.9,0,8.5,0.5,10.7,1.6c2.3,1.1,3.7,2.3,4.2,3.7c0.5,1.4,0.8,3.2,0.8,5.4
			c0,10.7-2.9,23.8-8.8,39.3c2.9,2.7,6,4,9.2,4c3.8,0,8.8-3.3,14.8-10v9.9c-2.9,2.6-5.8,4.4-8.5,5.4c-2.8,1.1-4.9,1.6-6.5,1.6
			c-4.1,0-8.2-1.6-12.3-4.8c-8.3,12.5-17.7,18.7-28.4,18.7c-6.7,0-12.1-2.5-16.2-7.5c-4.1-5-6.2-11.6-6.2-19.8
			c0-13,4.7-24.2,14-33.5C262.95,333.96,274.05,329.26,287.05,329.26 M272.35,391.86c4.1,0,8.5-3.7,13.3-11.2
			c-5.4-6.7-8.1-14-8.1-21.8c0-9.1,4-17,12-23.7c-0.9-0.3-2.1-0.5-3.7-0.5c-7.5,0-13.3,3.9-17.5,11.7c-4.2,7.8-6.3,16.9-6.3,27.3
			c0,5.8,0.9,10.3,2.8,13.5C266.55,390.26,269.05,391.86,272.35,391.86 M287.05,322.26c-14.8,0-27.7,5.4-38.3,16.1
			c-10.6,10.7-16,23.6-16,38.5c0,9.9,2.6,18,7.8,24.3c5.4,6.5,12.9,10,21.6,10c11.3,0,21.5-5.5,30.2-16.3c3.4,1.6,6.9,2.4,10.5,2.4
			c2.5,0,5.5-0.7,9.1-2c3.5-1.3,7.1-3.6,10.6-6.7l2.4-2.1v-3.2v-9.9v-18.2l-12.2,13.5c-6.8,7.5-9.6,7.7-9.6,7.7c-0.1,0-0.4,0-0.7,0
			c4.8-14,7.3-26.1,7.3-36.3c0-3-0.4-5.6-1.2-7.8c-1.2-3.2-3.8-5.8-7.8-7.7C297.45,322.96,293.05,322.26,287.05,322.26
			L287.05,322.26z M272.35,384.86c-0.5,0-0.9,0-1.6-1.3c-0.8-1.5-1.8-4.4-1.8-10c0-4.9,0.5-9.6,1.6-13.8c0.2,7.4,2.4,14.4,6.5,20.9
			C274.05,384.46,272.45,384.86,272.35,384.86L272.35,384.86z"/>
	</g>
	<g>
		<path class="st0" d="M351.65,329.06c-4.4,11.8-7.3,21.1-8.7,27.9c9.4-10.5,16.9-17.7,22.4-21.7s10.4-6,14.7-6
			c2.9,0,5.4,1.1,7.3,3.3c1.9,2.2,2.9,4.9,2.9,8.3c0,5.5-2.5,14.5-7.4,27.1c-3.4,8.6-5.1,14.2-5.1,16.8c0,3.4,1.4,5.2,4.2,5.2
			c4.2,0,11-5.5,20.4-16.5v9.9c-13.3,13.9-24.6,20.9-34.1,20.9c-3.8,0-6.9-1.3-9.3-4c-2.4-2.7-3.5-6.3-3.5-10.8
			c0-6.1,2.5-15.5,7.6-28c2.7-6.7,4-11,4-12.9c0-1.8-0.7-2.7-2.2-2.7c-0.8,0-1.9,0.4-3.2,1.2c-1.2,0.8-2.6,1.9-4.2,3.3
			c-1.4,1.3-3,2.9-4.8,4.8c-1.6,1.6-3.2,3.4-5,5.5l-4.8,5.6c-2.1,2.6-3.4,5.3-4,8.1c-0.9,4.9-1.4,9.3-1.7,13.4
			c-0.2,3-0.3,7.1-0.3,12.3l-19,4.5c-0.6-7.7-0.9-13.5-0.9-17.2c0-9.2,1.1-17.9,3.2-26.1s5.6-17.5,10.4-27.8L351.65,329.06
			 M362.55,319.86l-12.2,2.3l-21,4l-3.5,0.7l-1.5,3.3c-4.9,10.6-8.6,20.3-10.8,28.9c-2.3,8.8-3.5,18.2-3.5,27.9c0,4,0.3,9.8,1,17.8
			l0.7,8.1l7.9-1.9l19-4.5l5.4-1.3v-5.6c0-5,0.1-8.9,0.2-11.8c0.3-3.8,0.8-8,1.6-12.6c0.3-1.6,1.1-3.2,2.4-4.8l4.8-5.5
			c0.6-0.7,1.3-1.4,1.9-2.1c-4.3,11.4-6.4,20-6.4,26.3c0,6.2,1.8,11.4,5.3,15.4c3.7,4.2,8.7,6.4,14.6,6.4c11.6,0,24.4-7.6,39.2-23.1
			l1.9-2v-2.8v-9.9v-19l-12.3,14.5c-5.2,6.1-8.8,9.5-11.2,11.5c0.7-2.2,1.8-5.3,3.5-9.8c5.3-13.5,7.9-23.2,7.9-29.6
			c0-5.1-1.6-9.4-4.7-12.9c-3.3-3.7-7.6-5.6-12.5-5.6c-5.9,0-12,2.4-18.9,7.4c-1,0.8-2.1,1.6-3.3,2.6c0.1-0.2,0.2-0.4,0.2-0.7
			L362.55,319.86L362.55,319.86z"/>
	</g>
	<g>
		<path class="st0" d="M444.95,300.16l-8.9,29.8l12.2-0.7l-2.8,13.2l-13.4,1l-5.7,19.2c-2,6.7-3,12-3,15.9c0,2.7,0.7,4.9,2,6.6
			c1.4,1.7,3.1,2.5,5.2,2.5c2.9,0,5.8-0.9,8.7-2.8s7.1-5.7,12.7-11.6v9.9c-7.2,7.1-13.5,12.4-18.8,15.8s-10.3,5.1-15.1,5.1
			c-4.9,0-8.9-2.1-12-6.2s-4.6-9.6-4.6-16.3c0-5.9,1.5-13.8,4.4-23.5l3.7-13l-6.6,0.3l2.8-13.5l8.2-0.3l8.1-26.7L444.95,300.16
			 M455.05,290.96l-11.5,2.3l-23,4.7l-4.1,0.8l-1.2,4l-6.6,22l-3.2,0.1l-5.5,0.2l-1.1,5.4l-2.8,13.5l-1.8,8.9l5.9-0.3l-1,3.5
			c-3.2,10.5-4.7,18.8-4.7,25.5c0,8.2,2,15.1,6,20.5c4.4,5.9,10.5,9,17.6,9c6.1,0,12.5-2.1,18.9-6.2c5.7-3.7,12.3-9.2,19.9-16.7
			l2.1-2.1v-2.9v-9.9v-17.6l-12.1,12.8c-6.4,6.8-9.8,9.5-11.4,10.5c-1.7,1.1-3.2,1.6-4.7,1.7c-0.3-0.5-0.4-1.4-0.4-2.1
			c0-2.2,0.5-6.5,2.7-13.9l4.4-14.6l8.6-0.7l5.2-0.4l1.1-5.1l2.8-13.2l1.9-9l-9.2,0.5l-2.2,0.1l6-20.3L455.05,290.96L455.05,290.96z
			"/>
	</g>
	<g>
		<path class="st0" d="M472.35,295.06c4.5,2.8,8.2,4.2,10.9,4.2c3.1,0,6.2-1.1,9.2-3.3c0,13.7-5.1,20.6-15.2,20.6
			c-4.9,0-9.2-1.5-12.7-4.5C467.95,306.96,470.55,301.36,472.35,295.06 M486.35,329.46l-8.6,26.8c-3.6,11.1-5.3,19-5.3,23.7
			c0,1.9,0.4,3.4,1.2,4.6s1.9,1.8,3.1,1.8c2.2,0,4.5-0.8,6.8-2.4s5.8-5.2,10.7-10.6v9.9c-13.4,14.1-23.5,21.1-30.1,21.1
			c-3.7,0-6.8-1.9-9.3-5.6s-3.8-8.4-3.8-14.1c0-12.2,4.1-29,12.4-50.6l21.9-4.5h1 M499.55,282.16l-11.1,8.1c-1.8,1.3-3.5,2-5.1,2
			c-0.4,0-2.4-0.2-7.3-3.2l-7.8-4.8l-2.6,8.8c-1.6,5.6-3.9,10.7-6.9,15.1l-3.4,5.2l4.7,4c4.8,4.1,10.6,6.1,17.2,6.1
			c1,0,2-0.1,2.9-0.2l-18.2,3.8l-3.7,0.8l-1.4,3.6c-8.7,22.6-12.9,39.9-12.9,53.1c0,7.1,1.7,13.1,5,18c4.9,7.2,10.9,8.7,15.1,8.7
			c8.9,0,20-7.4,35.2-23.2l1.9-2v-2.8v-9.9v-18.3l-12.2,13.6c-5.9,6.5-8.5,8.8-9.6,9.6c0.3-3.3,1.5-9.2,4.9-19.8l8.6-26.8l2.9-9.1
			h-9.6h-1h-0.7c4.8-1.5,7.9-4.4,9.7-6.9c3.5-4.7,5.2-11.1,5.2-19.6v-13.9L499.55,282.16L499.55,282.16z"/>
	</g>
	<g>
		<path class="st0" d="M528.05,329.06c-4.4,11.8-7.3,21.1-8.7,27.9c9.4-10.5,16.9-17.7,22.4-21.7s10.4-6,14.7-6
			c2.9,0,5.4,1.1,7.3,3.3c1.9,2.2,2.9,4.9,2.9,8.3c0,5.5-2.5,14.5-7.4,27.1c-3.4,8.6-5.1,14.2-5.1,16.8c0,3.4,1.4,5.2,4.2,5.2
			c4.2,0,11-5.5,20.4-16.5v9.9c-13.3,13.9-24.6,20.9-34.1,20.9c-3.8,0-6.9-1.3-9.3-4c-2.4-2.7-3.5-6.3-3.5-10.8
			c0-6.1,2.5-15.5,7.6-28c2.7-6.7,4-11,4-12.9c0-1.8-0.7-2.7-2.2-2.7c-0.8,0-1.9,0.4-3.2,1.2c-1.2,0.8-2.6,1.9-4.2,3.3
			c-1.4,1.3-3,2.9-4.8,4.8c-1.6,1.6-3.2,3.4-5,5.5l-4.8,5.6c-2.1,2.6-3.4,5.3-4,8.1c-0.9,4.9-1.4,9.3-1.7,13.4
			c-0.2,3-0.3,7.1-0.3,12.3l-19,4.5c-0.6-7.7-0.9-13.5-0.9-17.2c0-9.2,1.1-17.9,3.2-26.1s5.6-17.5,10.4-27.8L528.05,329.06
			 M538.95,319.86l-12.2,2.3l-21,4l-3.5,0.7l-1.5,3.3c-4.9,10.6-8.6,20.3-10.8,28.9c-2.3,8.8-3.5,18.2-3.5,27.9c0,4,0.3,9.8,1,17.8
			l0.7,8.1l7.9-1.9l19-4.5l5.4-1.3v-5.6c0-5,0.1-8.9,0.2-11.8c0.3-3.8,0.8-8,1.6-12.6c0.3-1.6,1.1-3.2,2.4-4.8l4.8-5.5
			c0.6-0.7,1.3-1.4,1.9-2.1c-4.3,11.4-6.4,20-6.4,26.3c0,6.2,1.8,11.4,5.3,15.4c3.7,4.2,8.7,6.4,14.6,6.4c11.6,0,24.4-7.6,39.2-23.1
			l1.9-2v-2.8v-9.9v-19l-12.3,14.5c-5.2,6.1-8.8,9.5-11.2,11.5c0.7-2.2,1.8-5.3,3.5-9.8c5.3-13.5,7.9-23.2,7.9-29.6
			c0-5.1-1.6-9.4-4.7-12.9c-3.3-3.7-7.6-5.6-12.5-5.6c-5.9,0-12,2.4-18.9,7.4c-1,0.8-2.1,1.6-3.3,2.6c0.1-0.2,0.2-0.4,0.2-0.7
			L538.95,319.86L538.95,319.86z"/>
	</g>
	<g>
		<path class="st0" d="M658.85,329.26c-5.4,17.2-9.1,29.3-11.1,36.2c-2,7-3,11.9-3,14.7c0,5.4,1.8,8.1,5.5,8.1c3,0,7.4-2.7,13.3-8.1
			l7.2-6.8v9.9c-7.6,7.1-13.9,12.4-19,15.8s-9.7,5.1-13.8,5.1c-4.5,0-8-1.8-10.5-5.4c-2.4-3.6-3.7-8.5-3.7-14.7
			c-6.3,6.9-12,12-17,15.3s-9.9,4.9-14.6,4.9c-4.4,0-7.9-1.8-10.5-5.4s-4-8.5-4-14.7c0-11.9,4-28.6,12.1-50.2l23-4.6
			c-9.5,27.4-14.2,45-14.2,52.7c0,5.5,2.1,8.2,6.2,8.2c3,0,6.7-2.4,11.1-7.2c4.4-4.8,7.2-9,8.3-12.6l11.3-36.5L658.85,329.26
			 M669.15,320.06l-11.6,2.3l-23.4,4.7l-4.1,0.8l-1.2,4l-11.3,36.5c-0.5,1.8-2.2,5-6.7,10c-2.5,2.7-4.2,4-5.1,4.5c0-0.2,0-0.5,0-0.8
			c0-4.8,2.4-17.4,13.8-50.4l4-11.5l-12,2.4l-23,4.6l-3.8,0.8l-1.4,3.7c-8.4,22.6-12.5,39.8-12.5,52.7c0,7.7,1.8,14,5.3,18.8
			c4,5.4,9.5,8.3,16.2,8.3c6.1,0,12.4-2,18.5-6.1c2.8-1.8,5.7-4.1,8.7-6.8c0.6,1.5,1.4,2.9,2.3,4.2c3.8,5.5,9.4,8.5,16.3,8.5
			c5.5,0,11.3-2.1,17.7-6.3c5.5-3.7,12-9.1,20-16.5l2.2-2.1v-3v-9.9v-16.1l-11.8,11l-7.2,6.8c-3.4,3.1-5.6,4.7-7,5.5
			c0-0.1,0-0.2,0-0.3c0-1,0.3-4.1,2.7-12.7c2-6.9,5.7-19.1,11.1-36.1L669.15,320.06L669.15,320.06z"/>
	</g>
	<g>
		<path class="st0" d="M714.55,329.06c7.2,0,12.2,3.3,15.1,9.9l17.6-9.7h4.8l-7.6,25.1c-3.9,12.6-5.9,21.3-5.9,26
			c0,4.9,1.7,7.4,5.3,7.4c2.2,0,4.7-1.2,7.4-3.6s6.5-6,11.4-10.8v9.9c-9.2,8.7-15.8,14.3-19.7,17c-4,2.6-7.8,3.9-11.4,3.9
			c-9.1,0-13.4-8-12.8-23.9c-5.7,8.2-11,14.2-15.9,18.1s-9.9,5.8-15,5.8s-9.3-2.4-12.9-7.1s-5.3-10.5-5.3-17.4
			c0-8.6,2.4-16.7,7.1-24.5c4.7-7.8,10.8-14.1,18.2-18.9S708.95,329.06,714.55,329.06 M699.65,387.86c5.7,0,11.2-4.9,16.2-14.6
			c5.1-9.7,7.6-18.7,7.6-27c0-3.2-0.7-5.7-2.2-7.5c-1.4-1.8-3.4-2.7-5.8-2.7c-5.7,0-11.2,4.9-16.3,14.6s-7.7,18.7-7.7,26.8
			c0,3.1,0.8,5.6,2.3,7.5C695.35,386.86,697.25,387.86,699.65,387.86 M714.55,322.06c-7.1,0-14.8,2.7-23.4,8.3
			c-8.3,5.4-15.1,12.4-20.4,21.1c-5.4,8.8-8.1,18.3-8.1,28.2c0,8.4,2.3,15.6,6.7,21.6c6.1,8.2,13.4,9.9,18.5,9.9
			c6.8,0,13.3-2.5,19.4-7.4c2.1-1.7,4.3-3.7,6.5-6.1c1.1,3.3,2.7,6.1,4.8,8.2c3.3,3.5,7.8,5.3,13,5.3c5,0,10.1-1.7,15.2-5.1
			c4.3-2.9,11.1-8.7,20.7-17.7l2.2-2.1v-3v-9.9v-16.9l-11.9,11.9c-4.8,4.7-8.5,8.3-11,10.5c-0.4,0.3-0.7,0.6-1,0.8
			c0.1-2.7,1.1-8.9,5.5-23.3l7.6-25.2l2.7-9h-9.4h-4.8h-1.8l-1.6,0.9l-11.9,6.5C727.75,324.66,721.75,322.06,714.55,322.06
			L714.55,322.06z M699.45,380.86c0,0-0.1-0.1-0.2-0.2c-0.5-0.6-0.8-1.7-0.8-3.1c0-7,2.3-14.9,6.9-23.5c3.6-6.8,7.4-10.8,10.1-10.8
			c0.1,0,0.2,0,0.3,0l0,0c0.1,0.2,0.6,1,0.6,3.1c0,7.1-2.3,15-6.8,23.7C706.05,376.86,702.25,380.86,699.45,380.86
			C699.55,380.86,699.45,380.86,699.45,380.86L699.45,380.86z"/>
	</g>
</g>
<g>
	<g>
		<path class="st1" d="M240.35,383.56c-13.6,14-30,21-49.3,21c-13.8,0-25.1-4.3-33.9-12.9s-13.2-19.6-13.2-33.1
			c0-13.4,3.2-26.2,9.6-38.3c6.4-12.1,14.7-21.8,25-29c10.3-7.3,20.4-10.9,30.4-10.9c8.3,0,15.1,2.5,20.4,7.5s7.9,11.4,7.9,19.4
			c0,10.3-3.2,19.3-9.5,26.9s-13.8,11.4-22.3,11.4c-4.5,0-8.2-1.1-11-3.4c-2.9-2.3-4.3-5.2-4.3-8.8c0-3.1,1.2-5.9,3.7-8.6
			c1.8,3.4,4.4,5.1,7.6,5.1c4.6,0,8.9-2.9,12.8-8.6s5.9-12,5.9-18.8c0-4.7-1.1-8.5-3.3-11.3c-2.2-2.8-5.2-4.2-8.8-4.2
			c-5.3,0-11,3.3-17.1,9.9s-11.1,15.1-15.2,25.5s-6.1,20.3-6.1,29.6c0,11.9,3.4,21.7,10.2,29.4c6.8,7.7,15.5,11.5,26,11.5
			c6.7,0,12.7-1.5,18-4.6s10.9-7.9,16.6-14.4v9.7L240.35,383.56L240.35,383.56z"/>
	</g>
	<g>
		<path class="st1" d="M317.65,383.46c-2.9,2.6-5.8,4.4-8.5,5.4c-2.8,1.1-4.9,1.6-6.5,1.6c-4.1,0-8.2-1.6-12.3-4.8
			c-8.3,12.5-17.7,18.7-28.4,18.7c-6.7,0-12.1-2.5-16.2-7.5c-4.1-5-6.2-11.6-6.2-19.8c0-13,4.7-24.2,14-33.5
			c9.3-9.3,20.4-14,33.3-14c4.9,0,8.5,0.5,10.7,1.6c2.3,1.1,3.7,2.3,4.2,3.7c0.5,1.4,0.8,3.2,0.8,5.4c0,10.7-2.9,23.8-8.8,39.3
			c2.9,2.7,6,4,9.2,4c3.8,0,8.8-3.3,14.8-10L317.65,383.46L317.65,383.46z M289.25,335.56c-0.9-0.3-2.1-0.5-3.7-0.5
			c-7.5,0-13.3,3.9-17.5,11.7c-4.2,7.8-6.3,16.9-6.3,27.3c0,5.8,0.9,10.3,2.8,13.5c1.8,3.2,4.4,4.8,7.7,4.8c4.1,0,8.5-3.7,13.3-11.2
			c-5.4-6.7-8.1-14-8.1-21.8C277.25,350.06,281.25,342.16,289.25,335.56z"/>
	</g>
	<g>
		<path class="st1" d="M402.15,383.46c-13.3,13.9-24.6,20.9-34.1,20.9c-3.8,0-6.9-1.3-9.3-4c-2.4-2.7-3.5-6.3-3.5-10.8
			c0-6.1,2.5-15.5,7.6-28c2.7-6.7,4-11,4-12.9c0-1.8-0.7-2.7-2.2-2.7c-0.8,0-1.9,0.4-3.2,1.2c-1.2,0.8-2.6,1.9-4.2,3.3
			c-1.4,1.3-3,2.9-4.8,4.8c-1.6,1.6-3.2,3.4-5,5.5l-4.8,5.6c-2.1,2.6-3.4,5.3-4,8.1c-0.9,4.9-1.4,9.3-1.7,13.4
			c-0.2,3-0.3,7.1-0.3,12.3l-19,4.5c-0.6-7.7-0.9-13.5-0.9-17.2c0-9.2,1.1-17.9,3.2-26.1s5.6-17.5,10.4-27.8l21-4
			c-4.4,11.8-7.3,21.1-8.7,27.9c9.4-10.5,16.9-17.7,22.4-21.7s10.4-6,14.7-6c2.9,0,5.4,1.1,7.3,3.3c1.9,2.2,2.9,4.9,2.9,8.3
			c0,5.5-2.5,14.5-7.4,27.1c-3.4,8.6-5.1,14.2-5.1,16.8c0,3.4,1.4,5.2,4.2,5.2c4.2,0,11-5.5,20.4-16.5L402.15,383.46L402.15,383.46z
			"/>
	</g>
	<g>
		<path class="st1" d="M451.65,383.46c-7.2,7.1-13.5,12.4-18.8,15.8s-10.3,5.1-15.1,5.1c-4.9,0-8.9-2.1-12-6.2s-4.6-9.6-4.6-16.3
			c0-5.9,1.5-13.8,4.4-23.5l3.7-13l-6.6,0.3l2.8-13.5l8.2-0.3l8.1-26.7l23-4.7l-8.9,29.8l12.2-0.7l-2.8,13.2l-13.4,1l-5.7,19.2
			c-2,6.7-3,12-3,15.9c0,2.7,0.7,4.9,2,6.6c1.4,1.7,3.1,2.5,5.2,2.5c2.9,0,5.8-0.9,8.7-2.8s7.1-5.7,12.7-11.6v9.9L451.65,383.46
			L451.65,383.46z"/>
	</g>
	<g>
		<path class="st1" d="M493.95,383.46c-13.4,14.1-23.5,21.1-30.1,21.1c-3.7,0-6.8-1.9-9.3-5.6s-3.8-8.4-3.8-14.1
			c0-12.2,4.1-29,12.4-50.6l21.9-4.5h1l-8.6,26.8c-3.6,11.1-5.3,19-5.3,23.7c0,1.9,0.4,3.4,1.2,4.6s1.9,1.8,3.1,1.8
			c2.2,0,4.5-0.8,6.8-2.4s5.8-5.2,10.7-10.6L493.95,383.46L493.95,383.46z M492.25,296.26c0,13.7-5.1,20.6-15.2,20.6
			c-4.9,0-9.2-1.5-12.7-4.5c3.3-5,5.9-10.7,7.8-17c4.5,2.8,8.2,4.2,10.9,4.2C486.15,299.56,489.15,298.46,492.25,296.26z"/>
	</g>
	<g>
		<path class="st1" d="M578.55,383.46c-13.3,13.9-24.6,20.9-34.1,20.9c-3.8,0-6.9-1.3-9.3-4c-2.4-2.7-3.5-6.3-3.5-10.8
			c0-6.1,2.5-15.5,7.6-28c2.7-6.7,4-11,4-12.9c0-1.8-0.7-2.7-2.2-2.7c-0.8,0-1.9,0.4-3.2,1.2c-1.2,0.8-2.6,1.9-4.2,3.3
			c-1.4,1.3-3,2.9-4.8,4.8c-1.6,1.6-3.2,3.4-5,5.5l-4.8,5.6c-2.1,2.6-3.4,5.3-4,8.1c-0.9,4.9-1.4,9.3-1.7,13.4
			c-0.2,3-0.3,7.1-0.3,12.3l-19,4.5c-0.6-7.7-0.9-13.5-0.9-17.2c0-9.2,1.1-17.9,3.2-26.1s5.6-17.5,10.4-27.8l21-4
			c-4.4,11.8-7.3,21.1-8.7,27.9c9.4-10.5,16.9-17.7,22.4-21.7s10.4-6,14.7-6c2.9,0,5.4,1.1,7.3,3.3c1.9,2.2,2.9,4.9,2.9,8.3
			c0,5.5-2.5,14.5-7.4,27.1c-3.4,8.6-5.1,14.2-5.1,16.8c0,3.4,1.4,5.2,4.2,5.2c4.2,0,11-5.5,20.4-16.5L578.55,383.46L578.55,383.46z
			"/>
	</g>
	<g>
		<path class="st1" d="M670.45,383.46c-7.6,7.1-13.9,12.4-19,15.8s-9.7,5.1-13.8,5.1c-4.5,0-8-1.8-10.5-5.4
			c-2.4-3.6-3.7-8.5-3.7-14.7c-6.3,6.9-12,12-17,15.3s-9.9,4.9-14.6,4.9c-4.4,0-7.9-1.8-10.5-5.4s-4-8.5-4-14.7
			c0-11.9,4-28.6,12.1-50.2l23-4.6c-9.5,27.4-14.2,45-14.2,52.7c0,5.5,2.1,8.2,6.2,8.2c3,0,6.7-2.4,11.1-7.2c4.4-4.8,7.2-9,8.3-12.6
			l11.3-36.5l23.4-4.7c-5.4,17.2-9.1,29.3-11.1,36.2c-2,7-3,11.9-3,14.7c0,5.4,1.8,8.1,5.5,8.1c3,0,7.4-2.7,13.3-8.1l7.2-6.8V383.46
			z"/>
	</g>
	<g>
		<path class="st1" d="M762.35,383.46c-9.2,8.7-15.8,14.3-19.7,17c-4,2.6-7.8,3.9-11.4,3.9c-9.1,0-13.4-8-12.8-23.9
			c-5.7,8.2-11,14.2-15.9,18.1s-9.9,5.8-15,5.8s-9.3-2.4-12.9-7.1s-5.3-10.5-5.3-17.4c0-8.6,2.4-16.7,7.1-24.5
			c4.7-7.8,10.8-14.1,18.2-18.9s14-7.2,19.6-7.2c7.2,0,12.2,3.3,15.1,9.9l17.6-9.7h4.8l-7.6,25.1c-3.9,12.6-5.9,21.3-5.9,26
			c0,4.9,1.7,7.4,5.3,7.4c2.2,0,4.7-1.2,7.4-3.6s6.5-6,11.4-10.8L762.35,383.46L762.35,383.46z M699.35,388.16
			c5.7,0,11.2-4.9,16.2-14.6c5.1-9.7,7.6-18.7,7.6-27c0-3.2-0.7-5.7-2.2-7.5c-1.4-1.8-3.4-2.7-5.8-2.7c-5.7,0-11.2,4.9-16.3,14.6
			s-7.7,18.7-7.7,26.8c0,3.1,0.8,5.6,2.3,7.5C695.05,387.16,696.95,388.16,699.35,388.16z"/>
	</g>
</g>
<path class="st2" d="M68.6,34.18c0-3.29-0.05-3.4-7.71-12.47c-7.53-8.85-7.84-9.12-10.32-9.12c-2.52,0-2.84,0.27-10.37,9.12
	c-7.66,9.07-7.71,9.12-7.71,12.47c-0.5,7.61,6.94,9.77,10.95,5.24c0.68-0.76,0.9-0.59,1.04,6.85c0,1.3,0.05,2.81,0.05,4.53
	l-0.29,197.13c4.82-1.62,8.74-1.84,12.62-1.03c0-4.21,0.34-198.48,0.34-201.45v-2.79c0-1.53,1.34-2.52,2.48-1.85h0
	C63.87,43.63,69.01,40.23,68.6,34.18z"/>
<path class="st2" d="M618.31,211.15v13.83H24.45v-13.84C27.13,211.14,380.59,211.13,618.31,211.15z"/>
<polyline class="st3" points="-51.29,101.9 -50.21,95.87 -50.21,95.72 -48.86,87.91 -48.77,87.36 -47.82,81.83 "/>
<line class="st3" x1="-16" y1="108.27" x2="-17.4" y2="119.89"/>
<polyline class="st3" points="-14.65,101.55 -13.88,96.01 -12.71,87.36 -12.71,87.36 -12.57,86.43 "/>
<g>
	<g>
		<path class="st1" d="M227.73,144.08c-0.14,2.32-1.62,10.16-2.12,12.69c-0.05,0.1-0.05,0.15-0.05,0.21
			c-0.05,0.21-0.09,0.41-0.14,0.62c-0.36,1.7-0.72,3.46-1.08,5.16c-0.05,0.26-0.14,0.52-0.18,0.83c-0.95,4.18-2.21,9.8-3.06,12.74
			c-10.19,35.53-31.46,66.52-53,77.09c-5.54,2.73-11,4.13-16.22,4.13c-15.46,0-28.39-11.91-36.37-33.52
			c-5.36-14.49-8.07-27.28-13.84-65.18l-0.41-2.78c-0.95-6.09-1.62-10.57-2.25-14.54c-0.05-0.1-0.09-0.21-0.09-0.31
			c-4.73-23.31-7.17-30.99-11.22-40.27c-4.78-11.09-9.96-17.89-17.4-22.84c-3.7-2.53-7.17-3.97-11.22-4.69
			c-1.26-0.26-2.66-0.41-4.42-0.52c-0.54-0.05-1.04-0.05-1.49-0.1c-1.17-0.1-1.94-0.15-2.48-0.15c-0.54,0-0.77,0.05-1.04,0.15
			c-0.18,0.05-0.41,0.1-0.59,0.1h-1.08c-1.31,0-3.92,0-5.32-2.89c-0.14-0.31-0.23-0.62-0.27-0.93c-0.05-0.31-0.05-0.52-0.09-0.72
			c-0.23-1.55-0.23-2.17,0.32-3.92c0.05-0.26,0.14-0.46,0.27-0.67c1.89-3.09,4.42-5.88,14.83-5.88h1.49c0.14,0,0.41,0,0.68-0.05
			c0.41-0.05,0.63-0.1,0.77-0.1h1.49c4.91,0,8.97,2.06,14.11,5c7.71,4.28,13.52,10,19.51,19.13c0.47,0.71,0.87,1.31,1.23,1.83
			l0,0.01c0.12,0.29,4.7,11.19,8.9,22.94c0.13,0.67,0.35,1.3,0.66,1.87c2.87,8.18,5.44,16.54,6.11,21.83
			c0,0.31,0.09,2.01,1.17,10.52c0,0.05,0,0.21,0,0.21c0.14,0.26,0.23,0.57,0.27,0.88c0,0,0,0,0,0.05c0.59,4.07,1.26,8.82,2.03,13.77
			c1.71,11.35,3.29,21.25,4.33,27.23c0.9,5,2.52,12.94,3.65,17.58c4.87,20.16,10.1,30.22,18.66,35.84c3.7,2.42,4.15,2.58,8.11,2.78
			c0.32,0.05,0.68,0.05,1.04,0.05c2.12,0,4.1-0.31,6.17-0.88c0.05,0,0.05,0,0.05,0c5.9-1.65,11.99-5.78,18.66-12.58
			c12.08-12.32,21.5-28.21,27.99-47.34c2.07-5.88,3.43-10.62,4.82-16.81c0.09-0.31,0.14-0.67,0.23-1.03
			c0.72-3.3,1.49-7.12,2.57-12.74c-0.05-0.21,0-0.46,0.05-0.72c1.58-7.48,2.7-10.42,5.86-12.07c0.86-0.46,1.71-0.88,2.66-0.88
			c1.08,0,1.98,0.52,2.97,1.19C226.74,137.32,227.91,140,227.73,144.08z"/>
		<path class="st0" d="M114.29,105.91c-0.09,3.35-2.12,5.11-4.06,5.11c-0.77,0-1.94-0.31-3.06-1.65c-0.23-0.27-0.43-0.58-0.61-0.9
			c-0.31-0.57-0.53-1.2-0.66-1.87c-0.13-0.65-0.15-1.34-0.09-2.03c0.18-1.8,0.95-3.25,2.07-4.02c0,0,0.05,0,0.05-0.05
			c1.22-0.88,1.71-0.98,2.07-0.98c0.5,0,1.22,0.31,2.39,1.03C113.88,101.48,114.47,102.2,114.29,105.91z"/>
		<path class="st0" d="M235.44,147.74l-0.14,1.08l-0.99,5.67l-1.58,9.08l-0.27,1.39c-1.94,8.46-5.68,21.71-7.66,27.23
			c-7.53,20.52-19.42,39.81-33.49,54.25c-15.68,16.19-23.75,20.58-37.63,20.58h-1.35c-6.94-0.1-8.52-0.41-12.39-1.8
			c-15.73-5.67-27.04-20.42-34.57-45.12c-3.97-12.84-7.26-29.5-11.4-57.45l-0.09-0.67v-0.15l-1.08-7.32c0-0.1,0-0.15-0.05-0.26
			l-2.52-14.7c-0.04-0.31-0.09-0.62-0.23-0.93v-0.05c0-0.1-0.09-1.29-0.09-1.29c0-0.15-0.05-0.31-0.05-0.46v-0.15
			c-0.05-0.57-0.18-1.55-0.63-3.51c-0.23-0.88-0.45-1.91-0.68-2.89c-6.04-26.92-13.93-42.29-24.74-48.42c0,0-0.05,0-0.05-0.05
			c-0.41-0.21-0.86-0.46-1.31-0.67c-0.05,0-0.14-0.05-0.18-0.05l-0.32-0.1c-0.45-0.21-0.99-0.41-1.62-0.57c-0.05,0-0.05,0-0.09-0.05
			c-0.14-0.05-0.27-0.05-0.41-0.05h-0.23c-1.08,0.1-4.1,0.21-7.17,0.21h-4.1c-4.78,0-6.94-0.26-9.55-2.68
			c-3.2-3.04-4.37-5.98-4.19-10.57c0.27-6.55,3.83-12.02,9.01-13.87c0.32-0.1,2.25-0.77,4.87-1.44c0.68-0.15,1.22-0.67,1.53-1.39
			c0.81-0.15,1.76-0.26,3.47-0.26c0.59,0,1.26,0,2.07,0.05l1.26,0.05c2.21,0.1,3.83,0.15,5.18,0.26c2.84,0.26,4.51,0.67,7.89,1.7
			c13.66,4.28,24.79,13.15,33.04,26.35c2.93,4.74,2.7,5.31,2.3,6.24c0,0,0,0.05-0.05,0.05c-0.63,1.6-2.07,1.91-3.2,1.91h-0.45
			c-0.69-0.05-1.19-0.08-1.67-0.26c-0.8-0.3-1.51-1.03-2.86-2.96l0-0.01c-0.36-0.52-0.77-1.12-1.23-1.83
			C89.77,72.7,83.96,66.98,76.25,62.7c-5.14-2.94-9.19-5-14.11-5h-1.49c-0.14,0-0.36,0.05-0.77,0.1c-0.27,0.05-0.54,0.05-0.68,0.05
			h-1.49c-10.41,0-12.93,2.78-14.83,5.88c-0.14,0.21-0.23,0.41-0.27,0.67c-0.54,1.75-0.54,2.37-0.32,3.92
			c0.05,0.21,0.05,0.41,0.09,0.72c0.05,0.31,0.14,0.62,0.27,0.93c1.4,2.89,4.01,2.89,5.32,2.89h1.08c0.18,0,0.41-0.05,0.59-0.1
			c0.27-0.1,0.5-0.15,1.04-0.15c0.54,0,1.31,0.05,2.48,0.15c0.45,0.05,0.95,0.05,1.49,0.1c1.76,0.1,3.15,0.26,4.42,0.52
			c4.06,0.72,7.53,2.17,11.22,4.69c7.44,4.95,12.62,11.76,17.4,22.84c4.06,9.28,6.49,16.97,11.22,40.27c0,0.1,0.05,0.21,0.09,0.31
			c0.63,3.97,1.31,8.46,2.25,14.54l0.41,2.78c5.77,37.9,8.47,50.69,13.84,65.18c7.98,21.61,20.91,33.52,36.37,33.52
			c5.23,0,10.68-1.39,16.22-4.13c21.54-10.57,42.82-41.56,53-77.09c0.86-2.94,2.12-8.56,3.06-12.74c0.05-0.31,0.14-0.57,0.18-0.83
			c0.36-1.7,0.72-3.46,1.08-5.16c0.05-0.21,0.09-0.41,0.14-0.62c0-0.05,0-0.1,0.05-0.21c0.5-2.53,1.98-10.37,2.12-12.69
			c0.18-4.07-0.99-6.76-3.79-8.72c-0.99-0.67-1.89-1.19-2.97-1.19c-0.95,0-1.8,0.41-2.66,0.88c-3.15,1.65-4.28,4.59-5.86,12.07
			c-0.05,0.26-0.09,0.52-0.05,0.72c-1.08,5.62-1.85,9.44-2.57,12.74c-0.09,0.36-0.14,0.72-0.23,1.03
			c-1.4,6.19-2.75,10.93-4.82,16.81c-6.49,19.13-15.91,35.02-27.99,47.34c-6.67,6.81-12.75,10.93-18.66,12.58c0,0,0,0-0.05,0
			c-2.07,0.57-4.06,0.88-6.17,0.88c-0.36,0-0.72,0-1.04-0.05c-3.97-0.21-4.42-0.36-8.11-2.78c-8.56-5.62-13.79-15.68-18.66-35.84
			c-1.13-4.64-2.75-12.58-3.65-17.58c-1.04-5.98-2.61-15.88-4.33-27.23c-0.77-4.95-1.44-9.69-2.03-13.77c0-0.05,0-0.05,0-0.05
			c-0.04-0.31-0.14-0.62-0.27-0.88c0,0,0-0.15,0-0.21c-1.08-8.51-1.17-10.21-1.17-10.52c0.05-0.99,0.61-1.96,1.39-2.6
			c0.56-0.46,1.24-0.75,1.94-0.75h0.14c2.52,0.15,3.15,0.21,4.33,8.77l0.23,1.91v0.15c0.23,1.8,0.5,3.56,0.59,4.38
			c0,0.36,0.09,0.72,0.23,1.03c0,0,0.05,0.05,0.05,0.1c0.05,0.1,0.09,0.21,0.14,0.31c0,0.05,4.96,27.23,4.96,27.23l0.05,0.15
			c1.76,9.9,4.15,22.69,5.18,26.97c3.92,16.09,9.28,27.02,14.65,30.01c1.67,0.98,3.83,1.5,6.17,1.5c2.07,0,4.15-0.41,5.81-1.19
			c0.54-0.26,1.13-0.57,1.76-0.88c0,0,0,0,0.05,0c10.32-5.72,22.31-20.32,30.56-37.23c2.84-5.93,9.55-23.21,10.1-27.38l1.26-6.19
			c0-0.05,0.05-0.15,0.05-0.15l0.9-4.43l0.77-3.87c0-0.05,0-0.1,0-0.1l0.09-0.52c0,0,0.18-0.77,0.18-0.83
			c0.36-1.91,0.72-3.51,1.04-4.85c0.95-3.97,1.76-6.7,2.12-7.63c2.61-5.93,7.17-9.13,13.21-9.13c0.32,0,0.68,0,1.04,0.05
			c5.05,0.31,8.11,2.11,11,6.34C235.57,136.08,236.2,139.43,235.44,147.74z"/>
	</g>
	<path d="M109.13-14.32L109.13-14.32z"/>
</g>
<g>
	<g>
		<path class="st0" d="M265.55,186.56c5.3,0,9.6,1.4,12.8,4.1c3.2,2.7,4.8,6.3,4.8,10.8c0,11.8-12.6,21.4-37.9,28.8
			c2.3,11.1,8.3,16.7,18,16.7c3.8,0,7.4-1,10.9-3c3.4-2,8.6-6.5,15.6-13.5v9.9c-7.3,7.1-13.8,12.4-19.6,15.8
			c-5.8,3.4-12.2,5.1-19.2,5.1c-7.8,0-14.1-2.5-18.9-7.5s-7.2-11.5-7.2-19.6c0-12.1,4.2-23.1,12.7-32.9
			C245.95,191.46,255.35,186.56,265.55,186.56 M244.65,224.46c14.7-4.1,22.1-11.7,22.1-22.8c0-5.5-2-8.2-6-8.2
			c-3.8,0-7.4,2.9-10.9,8.6S244.65,215.26,244.65,224.46 M265.55,179.56c-12.4,0-23.6,5.8-33.4,17.1c-9.5,11.1-14.4,23.7-14.4,37.4
			c0,10,3.1,18.2,9.2,24.5c6.1,6.4,14.2,9.6,23.9,9.6c8.2,0,15.9-2,22.7-6.1c6.4-3.7,13.2-9.2,21-16.8l2.1-2.1v-2.9v-9.9v-16.9
			l-12,12c-8.1,8.1-12.2,11.2-14.2,12.4c-2.4,1.4-4.8,2.1-7.3,2.1c-3.4,0-6.8-0.7-9.1-5.2c10.2-3.4,18-7.3,23.8-11.7
			c8.1-6.2,12.2-13.5,12.2-21.6c0-6.5-2.5-12.1-7.3-16.1C278.45,181.46,272.65,179.56,265.55,179.56L265.55,179.56z M252.75,213.46
			c0.7-3,1.7-5.6,3-7.9c1.6-2.7,3-4.1,3.9-4.7c0,0.2,0,0.5,0,0.7C259.75,203.96,259.75,209.06,252.75,213.46L252.75,213.46z"/>
	</g>
	<g>
		<path class="st0" d="M309.65,186.36c4.5,0,6.7,2.3,6.7,6.9c0,3.6-1.3,8.7-3.9,15.4c9.5-1,17.9-8.3,25-21.8l7.8-0.3l-8,21.9
			c-3.3,9.3-5.5,15.6-6.5,18.9s-1.5,6.3-1.5,8.9c0,2.4,0.6,4.3,1.7,5.7c1.1,1.4,2.6,2.1,4.5,2.1c2.1,0,4-0.7,5.9-2.1
			s6.1-5.3,12.7-11.6v9.9c-14.4,14.1-25.5,21.1-33.3,21.1c-3.5,0-6.5-1.5-8.9-4.4s-3.6-6.6-3.6-10.9c0-8.1,4.3-18.9,13-32.4
			c-4.3,2.2-8.9,3.7-14,4.5c-3.7,6.9-9.6,14.2-17.6,22.1h-2v-7.7c4.5-4.6,8.5-9.6,12.1-14.9c-4.9-2.2-7.4-5.4-7.4-9.7
			c0-4.4,1.5-9.1,4.5-14.1C300.15,188.86,304.35,186.36,309.65,186.36 M355.45,179.16l-10.5,0.5l-7.8,0.3l-4,0.2l-1.9,3.5
			c-2.6,4.8-5.2,8.7-8,11.6c0.1-0.7,0.1-1.4,0.1-2c0-8.4-5.4-13.9-13.7-13.9c-7.8,0-14.1,3.8-18.4,10.9c-3.7,6.1-5.5,12-5.5,17.7
			c0,2.9,0.7,7.4,4.5,11.3c-2.3,2.9-4.7,5.7-7.3,8.4l-2,2v2.8v7.7v7h7h2h2.9l2-2c2.9-2.8,5.5-5.6,7.8-8.3c-0.8,3.2-1.2,6.3-1.2,9.1
			c0,6,1.8,11.2,5.2,15.4c3.7,4.6,8.7,7,14.3,7c9.9,0,22.1-7.3,38.2-23.1l2.1-2.1v-3v-9.9v-16.4l-11.8,11.4
			c-8.3,8-11.1,10.3-12.1,11c-0.4,0.3-0.7,0.5-1,0.6c0-0.2,0-0.4,0-0.7c0-1.9,0.4-4.2,1.2-6.9c0.9-3.2,3.1-9.4,6.3-18.5l8-21.9
			L355.45,179.16L355.45,179.16z"/>
	</g>
	<g>
		<path class="st0" d="M442.85,137.26c1.1,0,1.7,0.5,1.7,1.4c0,0.6-1.4,6.5-4.3,17.7c-11.5,44.8-17.2,71.8-17.2,81.1
			c0,2.2,0.5,3.9,1.4,5.2c0.9,1.3,2.1,2,3.6,2c3.7,0,9.7-4.7,18.1-14.2v9.9c-8.3,8.2-14.6,13.7-18.9,16.6c-4.3,2.9-8.2,4.3-11.5,4.3
			c-4.1,0-7.3-2-9.7-5.9s-3.6-9.7-3.7-17.3c-4.7,7.6-9.8,13.4-15.4,17.3c-5.5,3.9-10.6,5.9-15,5.9c-4.9,0-9.2-2.3-12.9-6.9
			c-3.7-4.6-5.6-10-5.6-16.2c0-12.7,4.7-24.6,14-35.4c9.3-10.9,19.4-16.3,30.1-16.3c3,0,5.3,0.4,7,1.3s3.5,2.3,5.6,4.4l12.3-51.2
			C432.55,138.46,439.35,137.26,442.85,137.26 M383.95,244.86c5.6,0,10.9-4.7,15.8-14.2c4.9-9.5,7.3-18.4,7.3-26.7
			c0-3.4-0.8-6.1-2.3-8.1s-3.5-3-6-3c-5.3,0-10.5,5-15.5,14.9s-7.5,18.9-7.5,26.9c0,3.1,0.7,5.6,2.2,7.5
			C379.45,243.96,381.45,244.86,383.95,244.86 M442.85,130.26c-2.6,0-7.7,0.4-21.9,3.7l-4.2,1l-1,4.2l-10,41.4
			c-2.3-0.8-5-1.2-8.1-1.2c-12.8,0-24.7,6.3-35.4,18.8c-10.4,12.1-15.7,25.6-15.7,40c0,7.8,2.4,14.7,7.2,20.6
			c6.4,7.8,13.5,9.5,18.4,9.5c6,0,12.3-2.4,19.1-7.2c2.4-1.7,4.8-3.7,7-6.1c0.6,1.4,1.2,2.8,2,4c4.6,7.7,11.1,9.3,15.7,9.3
			c4.8,0,9.8-1.8,15.4-5.5c4.8-3.2,11.3-8.9,20-17.4l2.1-2.1v-2.9v-9.9v-18.4l-12.2,13.8c-5.4,6-8.8,9-10.9,10.5
			c0.4-7.1,3.7-26.5,17-78.1c4.5-17.7,4.5-18.3,4.5-19.5C451.55,133.86,447.85,130.26,442.85,130.26L442.85,130.26z M383.45,237.76
			L383.45,237.76c-0.5-0.6-0.7-1.7-0.7-3.2c0-6.9,2.3-14.8,6.7-23.7c4.4-8.7,7.9-11,9.3-11c0.1,0,0.2,0,0.2,0s0.1,0.1,0.2,0.2
			c0.5,0.7,0.9,2.1,0.9,3.8c0,7.1-2.2,15-6.5,23.4c-3.4,6.5-6.9,10.4-9.5,10.4C383.65,237.86,383.55,237.76,383.45,237.76
			L383.45,237.76z"/>
	</g>
	<g>
		<path class="st0" d="M490.05,186.26c7.2,0,12.2,3.3,15.1,9.9l17.6-9.7h4.8l-7.6,25.1c-3.9,12.6-5.9,21.3-5.9,26
			c0,4.9,1.7,7.4,5.3,7.4c2.2,0,4.7-1.2,7.4-3.6s6.5-6,11.4-10.8v9.9c-9.2,8.7-15.8,14.3-19.7,17c-4,2.6-7.8,3.9-11.4,3.9
			c-9.1,0-13.4-8-12.8-23.9c-5.7,8.2-11,14.2-15.9,18.1s-9.9,5.8-15,5.8s-9.3-2.4-12.9-7.1s-5.3-10.5-5.3-17.4
			c0-8.6,2.4-16.7,7.1-24.5c4.7-7.8,10.8-14.1,18.2-18.9S484.35,186.26,490.05,186.26 M475.05,244.96c5.7,0,11.2-4.9,16.2-14.6
			c5.1-9.7,7.6-18.7,7.6-27c0-3.2-0.7-5.7-2.2-7.5c-1.4-1.8-3.4-2.7-5.8-2.7c-5.7,0-11.2,4.9-16.3,14.6s-7.7,18.7-7.7,26.8
			c0,3.1,0.8,5.6,2.3,7.5C470.75,244.06,472.75,244.96,475.05,244.96 M490.05,179.26c-7.1,0-14.8,2.7-23.4,8.3
			c-8.3,5.4-15.1,12.4-20.4,21.1c-5.4,8.8-8.1,18.3-8.1,28.2c0,8.4,2.3,15.6,6.7,21.6c6.1,8.2,13.4,9.9,18.5,9.9
			c6.8,0,13.3-2.5,19.4-7.4c2.1-1.7,4.3-3.7,6.5-6.1c1.1,3.3,2.7,6.1,4.8,8.2c3.3,3.5,7.8,5.3,13,5.3c5,0,10.1-1.7,15.2-5.1
			c4.3-2.9,11.1-8.7,20.7-17.7l2.2-2.1v-3v-9.9v-16.8l-11.9,11.9c-4.8,4.7-8.5,8.3-11,10.5c-0.4,0.3-0.7,0.6-1,0.8
			c0.1-2.7,1.1-8.9,5.5-23.3l7.6-25.2l2.7-9h-9.4h-4.9h-1.8l-1.6,0.9l-11.9,6.5C503.25,181.86,497.25,179.26,490.05,179.26
			L490.05,179.26z M474.95,237.96c0,0-0.1-0.1-0.2-0.2c-0.5-0.6-0.8-1.7-0.8-3.1c0-7,2.3-14.9,6.9-23.5c3.6-6.8,7.4-10.8,10.1-10.8
			c0.1,0,0.2,0,0.3,0l0,0c0.1,0.2,0.6,1,0.6,3.1c0,7.1-2.3,15-6.8,23.7C481.55,233.96,477.75,237.96,474.95,237.96L474.95,237.96
			L474.95,237.96z"/>
	</g>
	<g>
		<path class="st0" d="M626.65,137.26c1.1,0,1.7,0.5,1.7,1.4c0,0.6-1.4,6.5-4.3,17.7c-11.5,44.8-17.2,71.8-17.2,81.1
			c0,2.2,0.5,3.9,1.4,5.2c0.9,1.3,2.1,2,3.6,2c3.7,0,9.7-4.7,18.1-14.2v9.9c-8.3,8.2-14.6,13.7-18.9,16.6c-4.3,2.9-8.2,4.3-11.5,4.3
			c-4.1,0-7.3-2-9.7-5.9s-3.6-9.7-3.7-17.3c-4.7,7.6-9.8,13.4-15.4,17.3c-5.5,3.9-10.6,5.9-15,5.9c-4.9,0-9.2-2.3-12.9-6.9
			s-5.6-10-5.6-16.2c0-12.7,4.7-24.6,14-35.4c9.3-10.9,19.4-16.3,30.1-16.3c3,0,5.3,0.4,7,1.3s3.5,2.3,5.6,4.4l12.3-51.2
			C616.45,138.46,623.15,137.26,626.65,137.26 M567.75,244.86c5.6,0,10.9-4.7,15.8-14.2c4.9-9.5,7.3-18.4,7.3-26.7
			c0-3.4-0.8-6.1-2.3-8.1s-3.5-3-6-3c-5.3,0-10.5,5-15.5,14.9s-7.5,18.9-7.5,26.9c0,3.1,0.7,5.6,2.2,7.5
			C563.25,243.96,565.25,244.86,567.75,244.86 M626.65,130.26c-2.6,0-7.7,0.4-21.9,3.7l-4.2,1l-1,4.2l-10,41.4
			c-2.3-0.8-5-1.2-8.1-1.2c-12.8,0-24.7,6.3-35.4,18.8c-10.4,12.1-15.7,25.6-15.7,40c0,7.8,2.4,14.7,7.2,20.6
			c6.4,7.8,13.5,9.5,18.4,9.5c6,0,12.3-2.4,19.1-7.2c2.4-1.7,4.8-3.7,7-6.1c0.6,1.4,1.2,2.8,2,4c4.6,7.7,11.1,9.3,15.7,9.3
			c4.8,0,9.8-1.8,15.4-5.5c4.8-3.2,11.3-8.9,20-17.4l2.1-2.1v-2.9v-9.9v-18.4l-12.2,13.8c-5.4,6-8.8,9-10.9,10.5
			c0.4-7.1,3.7-26.5,17-78.1c4.5-17.7,4.5-18.3,4.5-19.5C635.45,133.86,631.65,130.26,626.65,130.26L626.65,130.26z M567.25,237.76
			L567.25,237.76c-0.5-0.6-0.7-1.7-0.7-3.2c0-6.9,2.3-14.8,6.7-23.7c4.4-8.7,7.9-11,9.3-11c0.1,0,0.2,0,0.2,0s0.1,0.1,0.2,0.2
			c0.5,0.7,0.9,2.1,0.9,3.8c0,7.1-2.2,15-6.5,23.4c-3.4,6.5-6.9,10.4-9.5,10.4C567.45,237.86,567.35,237.76,567.25,237.76
			L567.25,237.76z"/>
	</g>
</g>
<g>
	<g>
		<path class="st1" d="M289.75,240.26c-7.3,7.1-13.8,12.4-19.6,15.8c-5.8,3.4-12.2,5.1-19.2,5.1c-7.8,0-14.1-2.5-18.9-7.5
			s-7.2-11.5-7.2-19.6c0-12.1,4.2-23.1,12.7-32.9c8.4-9.8,17.8-14.7,28.1-14.7c5.3,0,9.6,1.4,12.8,4.1c3.2,2.7,4.8,6.3,4.8,10.8
			c0,11.8-12.6,21.4-37.9,28.8c2.3,11.1,8.3,16.7,18,16.7c3.8,0,7.4-1,10.9-3c3.4-2,8.6-6.5,15.6-13.5L289.75,240.26L289.75,240.26z
			 M244.65,224.46c14.7-4.1,22.1-11.7,22.1-22.8c0-5.5-2-8.2-6-8.2c-3.8,0-7.4,2.9-10.9,8.6S244.65,215.26,244.65,224.46z"/>
	</g>
	<g>
		<path class="st1" d="M354.25,240.26c-14.4,14.1-25.5,21.1-33.3,21.1c-3.5,0-6.5-1.5-8.9-4.4s-3.6-6.6-3.6-10.9
			c0-8.1,4.3-18.9,13-32.4c-4.3,2.2-8.9,3.7-14,4.5c-3.7,6.9-9.6,14.2-17.6,22.1h-2v-7.7c4.5-4.6,8.5-9.6,12.1-14.9
			c-4.9-2.2-7.4-5.4-7.4-9.7c0-4.4,1.5-9.1,4.5-14.1s7.2-7.5,12.4-7.5c4.5,0,6.7,2.3,6.7,6.9c0,3.6-1.3,8.7-3.9,15.4
			c9.5-1,17.9-8.3,25-21.8l7.8-0.3l-8,21.9c-3.3,9.3-5.5,15.6-6.5,18.9s-1.5,6.3-1.5,8.9c0,2.4,0.6,4.3,1.7,5.7
			c1.1,1.4,2.6,2.1,4.5,2.1c2.1,0,4-0.7,5.9-2.1s6.1-5.3,12.7-11.6v9.9H354.25z"/>
	</g>
	<g>
		<path class="st1" d="M446.25,240.26c-8.3,8.2-14.6,13.7-18.9,16.6c-4.3,2.9-8.2,4.3-11.5,4.3c-4.1,0-7.3-2-9.7-5.9
			s-3.6-9.7-3.7-17.3c-4.7,7.6-9.8,13.4-15.4,17.3c-5.5,3.9-10.6,5.9-15,5.9c-4.9,0-9.2-2.3-12.9-6.9c-3.7-4.6-5.6-10-5.6-16.2
			c0-12.7,4.7-24.6,14-35.4c9.3-10.9,19.4-16.3,30.1-16.3c3,0,5.3,0.4,7,1.3s3.5,2.3,5.6,4.4l12.3-51.2c10.1-2.3,16.8-3.5,20.3-3.5
			c1.1,0,1.7,0.5,1.7,1.4c0,0.6-1.4,6.5-4.3,17.7c-11.5,44.8-17.2,71.8-17.2,81.1c0,2.2,0.5,3.9,1.4,5.2c0.9,1.3,2.1,2,3.6,2
			c3.7,0,9.7-4.7,18.1-14.2v9.7H446.25z M383.95,244.86c5.6,0,10.9-4.7,15.8-14.2c4.9-9.5,7.3-18.4,7.3-26.7c0-3.4-0.8-6.1-2.3-8.1
			s-3.5-3-6-3c-5.3,0-10.5,5-15.5,14.9s-7.5,18.9-7.5,26.9c0,3.1,0.7,5.6,2.2,7.5C379.45,243.96,381.45,244.86,383.95,244.86z"/>
	</g>
	<g>
		<path class="st1" d="M538.15,240.26c-9.2,8.7-15.8,14.3-19.7,17c-4,2.6-7.8,3.9-11.4,3.9c-9.1,0-13.4-8-12.8-23.9
			c-5.7,8.2-11,14.2-15.9,18.1s-9.9,5.8-15,5.8s-9.3-2.4-12.9-7.1s-5.3-10.5-5.3-17.4c0-8.6,2.4-16.7,7.1-24.5
			c4.7-7.8,10.8-14.1,18.2-18.9s14-7.2,19.6-7.2c7.2,0,12.2,3.3,15.1,9.9l17.6-9.7h4.8l-7.6,25.1c-3.9,12.6-5.9,21.3-5.9,26
			c0,4.9,1.7,7.4,5.3,7.4c2.2,0,4.7-1.2,7.4-3.6s6.5-6,11.4-10.8L538.15,240.26L538.15,240.26z M475.05,244.96
			c5.7,0,11.2-4.9,16.2-14.6c5.1-9.7,7.6-18.7,7.6-27c0-3.2-0.7-5.7-2.2-7.5c-1.4-1.8-3.4-2.7-5.8-2.7c-5.7,0-11.2,4.9-16.3,14.6
			s-7.7,18.7-7.7,26.8c0,3.1,0.8,5.6,2.3,7.5C470.75,244.06,472.75,244.96,475.05,244.96z"/>
	</g>
	<g>
		<path class="st1" d="M630.05,240.26c-8.3,8.2-14.6,13.7-18.9,16.6c-4.3,2.9-8.2,4.3-11.5,4.3c-4.1,0-7.3-2-9.7-5.9
			s-3.6-9.7-3.7-17.3c-4.7,7.6-9.8,13.4-15.4,17.3c-5.5,3.9-10.6,5.9-15,5.9c-4.9,0-9.2-2.3-12.9-6.9s-5.6-10-5.6-16.2
			c0-12.7,4.7-24.6,14-35.4c9.3-10.9,19.4-16.3,30.1-16.3c3,0,5.3,0.4,7,1.3s3.5,2.3,5.6,4.4l12.3-51.2c10.1-2.3,16.8-3.5,20.3-3.5
			c1.1,0,1.7,0.5,1.7,1.4c0,0.6-1.4,6.5-4.3,17.7c-11.5,44.8-17.2,71.8-17.2,81.1c0,2.2,0.5,3.9,1.4,5.2c0.9,1.3,2.1,2,3.6,2
			c3.7,0,9.7-4.7,18.1-14.2v9.7H630.05z M567.75,244.86c5.6,0,10.9-4.7,15.8-14.2c4.9-9.5,7.3-18.4,7.3-26.7c0-3.4-0.8-6.1-2.3-8.1
			s-3.5-3-6-3c-5.3,0-10.5,5-15.5,14.9s-7.5,18.9-7.5,26.9c0,3.1,0.7,5.6,2.2,7.5C563.25,243.96,565.25,244.86,567.75,244.86z"/>
	</g>
</g>
<path class="st2" d="M674.02,214.85v6.47c-3.7,3.61-16.15,16.17-18.38,16.56c-7.95,1.93-11.55-7.76-5.87-12.85l-71.02-0.05v-13.84
	c50.26,0.01,60.8,0.05,62.4,0.05h8.56c-4.66-4-3.33-13.54,4.06-13.2c2.83,0,3.13,0.25,11.54,8.46L674.02,214.85z"/>
<polyline class="st3" points="566.55,267.02 566.55,226.03 566.55,212.19 566.55,186.07 "/>
</svg>
